HIERARCHY
ROOT Hips
{
	OFFSET 0.000000 0.000000 0.000000 
	CHANNELS 6 Xposition Yposition Zposition Yrotation Zrotation Xrotation 
	JOINT Lumbar
	{
		OFFSET 0.000000 0.000000 0.000000 
		CHANNELS 3 Zrotation Xrotation Yrotation
		JOINT Neck
		{
			OFFSET 0.000000 0.445665 0.000000 
			CHANNELS 3 Zrotation Xrotation Yrotation
			End Site
			{
				OFFSET 0.000000 0.227535 0.000000 
			}
		}
		JOINT RightShoulder
		{
			OFFSET 0.019635 0.377685 0.194865 
			CHANNELS 3 Zrotation Xrotation Yrotation
			JOINT RightElbow
			{
				OFFSET 0.000000 -0.243375 0.000000 
				CHANNELS 2 Zrotation Yrotation
				JOINT RightWrist
				{
					OFFSET 0.000000 -0.264825 0.000000 
					CHANNELS 2 Zrotation Xrotation
					End Site
					{
						OFFSET 0.006600 -0.176220 0.000990 
					}
				}
			}
		}
		JOINT LeftShoulder
		{
			OFFSET 0.019635 0.377685 -0.194865 
			CHANNELS 3 Zrotation Xrotation Yrotation
			JOINT LeftElbow
			{
				OFFSET 0.000000 -0.243375 0.000000 
				CHANNELS 2 Zrotation Yrotation
				JOINT LeftWrist
				{
					OFFSET 0.000000 -0.264825 0.000000 
					CHANNELS 2 Zrotation Xrotation
					End Site
					{
						OFFSET 0.006600 -0.176220 -0.000990 
					}
				}
			}
		}
	}
	JOINT RightHip
	{
		OFFSET 0.052140 -0.069960 0.075570 
		CHANNELS 3 Zrotation Xrotation Yrotation
		JOINT RightKnee
		{
			OFFSET 0.000000 -0.402270 0.000000 
			CHANNELS 1 Zrotation
			JOINT RightAnkle
			{
				OFFSET 0.000000 -0.404085 0.000000 
				CHANNELS 3 Zrotation Xrotation Yrotation
				End Site
				{
					OFFSET 0.204105 -0.089430 0.008415 
				}
			}
		}
	}
	JOINT LeftHip
	{
		OFFSET 0.052140 -0.069960 -0.075570 
		CHANNELS 3 Zrotation Xrotation Yrotation
		JOINT LeftKnee
		{
			OFFSET 0.000000 -0.402270 0.000000 
			CHANNELS 1 Zrotation
			JOINT LeftAnkle
			{
				OFFSET 0.000000 -0.404085 0.000000 
				CHANNELS 3 Zrotation Xrotation Yrotation
				End Site
				{
					OFFSET 0.204105 -0.089430 -0.008415 
				}
			}
		}
	}
}
MOTION
Frames: 35
Frame Time: 0.02
-0 0.95578 -0 170.08261 0 3.92004 9.50122 -2.08567 -5.97177 -38.77795 5.63364 10.0673 26.28375 -21.23071 -12.001 12.26002 81.79276 0.56024 3.07356 29.5006 -2.52642 2.83449 7.6304 -74.87347 -5.98698 0.12191 0.44678 0.60669 9.04628 -19.5675 11.47968 -9.24117 -12.86341 -0.75676 -3.78396 -5.66186 -16.19327 9.2641 7.4006 11.88388
-2e-05 0.95548 7e-05 169.95478 0 3.91365 9.54875 -1.84117 -5.85473 -38.58376 4.85266 9.35044 26.32023 -20.09476 -12.20179 11.99827 81.80621 0.33762 2.8503 29.34167 -1.49736 2.61743 7.76533 -75.02752 -5.94611 0.02555 0.46352 0.61554 9.18595 -19.59416 11.54511 -9.29804 -12.85899 -0.77435 -3.78051 -5.52961 -16.21114 9.34813 7.45829 11.86213
-4e-05 0.95519 0.00014 169.82751 0 3.90746 9.59557 -1.59856 -5.738 -38.39153 4.07753 8.63876 26.35724 -18.96715 -12.40185 11.7379 81.81933 0.1169 2.62913 29.1848 -0.47578 2.40099 7.89931 -75.18035 -5.90548 -0.06997 0.4808 0.62435 9.32528 -19.62153 11.61027 -9.35469 -12.85492 -0.79152 -3.77723 -5.39822 -16.22914 9.43152 7.51555 11.84069
-5e-05 0.95489 0.0002 169.70133 0 3.90188 9.64165 -1.36145 -5.62287 -38.20413 3.31847 7.94206 26.39371 -17.86286 -12.59751 11.48203 81.83201 -0.09903 2.41313 29.03242 0.52462 2.18776 8.03049 -75.32923 -5.8656 -0.16333 0.49967 0.633 9.46448 -19.65151 11.67482 -9.41089 -12.85213 -0.80791 -3.7745 -5.26896 -16.24755 9.51327 7.57171 11.82011
-0.0001 0.95457 0.00027 169.56952 0 3.89296 9.69373 -1.09559 -5.50108 -37.98995 2.47458 7.16749 26.42945 -16.63621 -12.8124 11.20417 81.84791 -0.34107 2.16851 28.8537 1.63568 1.96101 8.17611 -75.49828 -5.82197 -0.26847 0.50921 0.64243 9.60422 -19.66705 11.74247 -9.46933 -12.84248 -0.82936 -3.76871 -5.1284 -16.26343 9.60384 7.63374 11.79479
-5e-05 0.95431 0.00033 169.44968 0 3.89118 9.73162 -0.89056 -5.39222 -37.83342 1.81076 6.55742 26.46912 -15.66881 -12.98919 10.97184 81.85637 -0.52715 1.9855 28.73261 2.51264 1.76069 8.29131 -75.62503 -5.78618 -0.34837 0.53912 0.65023 9.74278 -19.71352 11.80358 -9.52307 -12.84743 -0.83947 -3.7695 -5.01189 -16.28491 9.67559 7.68329 11.77964
0.00024 0.95419 0.00037 169.36088 0 3.90907 9.73988 -0.8557 -5.32785 -37.82781 1.6459 6.40972 26.49923 -15.42411 -13.03726 10.87425 81.84916 -0.56277 1.9668 28.75617 2.73468 1.64939 8.32074 -75.63024 -5.77302 -0.35962 0.62331 0.65342 9.881 -19.84664 11.84669 -9.5638 -12.89346 -0.82185 -3.78833 -4.96062 -16.3209 9.6958 7.69847 11.79232
0.00065 0.95412 0.00041 169.28424 0 3.93416 9.73062 -0.88168 -5.27472 -37.87976 1.66252 6.42656 26.5359 -15.44012 -13.05043 10.82112 81.83371 -0.54137 2.01133 28.83894 2.72216 1.56085 8.32007 -75.5939 -5.7677 -0.34495 0.7289 0.65502 10.01774 -20.01099 11.88305 -9.5996 -12.95397 -0.79172 -3.81383 -4.9336 -16.36294 9.69677 7.70095 11.81535
0.00104 0.95403 0.00044 169.20348 0 3.95606 9.72501 -0.87853 -5.21077 -37.91353 1.59456 6.36257 26.58448 -15.33151 -13.09599 10.7413 81.81863 -0.54318 2.03069 28.90624 2.82274 1.45237 8.33405 -75.57934 -5.758 -0.34177 0.82564 0.65742 10.15333 -20.16035 11.92282 -9.63798 -13.00762 -0.76542 -3.83642 -4.8964 -16.40261 9.7065 7.70935 11.83379
0.0013 0.95394 0.00047 169.11761 0 3.97776 9.74355 -0.88215 -5.17137 -37.92253 1.53476 6.32374 26.57521 -15.2468 -13.07517 10.68776 81.81708 -0.55559 2.03506 28.93217 2.89593 1.38784 8.3429 -75.55149 -5.75129 -0.34082 0.91716 0.65943 10.29623 -20.31275 11.96201 -9.67581 -13.06315 -0.74851 -3.85862 -4.85637 -16.43986 9.71688 7.71757 11.85161
0.00186 0.95386 0.00052 169.04425 0 4.0014 9.70015 -0.8855 -5.08295 -37.98565 1.50205 6.27215 26.68172 -15.17683 -13.18007 10.59143 81.78631 -0.53337 2.08563 29.04967 2.97031 1.23287 8.35658 -75.54278 -5.74081 -0.32781 1.02656 0.66195 10.42397 -20.4666 11.99969 -9.71252 -13.11735 -0.70711 -3.88307 -4.8271 -16.48459 9.72045 7.7226 11.87333
0.00297 0.95372 0.00063 169.01153 0 4.03014 9.5521 -0.87845 -4.86094 -38.27732 1.4915 6.13921 27.15866 -15.06172 -13.6752 10.3553 81.66881 -0.42156 2.24777 29.47828 3.10673 0.85979 8.37997 -75.58557 -5.71295 -0.299 1.16483 0.66582 10.50647 -20.61538 12.04431 -9.75686 -13.17184 -0.6163 -3.91345 -4.82992 -16.54204 9.71747 7.7266 11.90219
0.00441 0.95359 0.00079 168.98966 0 4.06029 9.32945 -0.868 -4.58816 -38.6025 1.50372 5.98832 27.74123 -14.95685 -14.29029 10.07735 81.5236 -0.27861 2.45385 29.98245 3.25218 0.38819 8.41129 -75.65107 -5.68212 -0.25716 1.32403 0.67045 10.57427 -20.7659 12.08586 -9.79851 -13.22326 -0.49733 -3.94573 -4.84171 -16.60946 9.70694 7.72701 11.93494
0.00584 0.95347 0.00095 168.95639 0 4.08879 9.1018 -0.85579 -4.33594 -38.85324 1.51065 5.85015 28.24226 -14.86135 -14.82949 9.82462 81.39651 -0.1548 2.64074 30.40555 3.39259 -0.06302 8.44623 -75.71395 -5.65574 -0.21355 1.48264 0.6749 10.65152 -20.91515 12.12259 -9.83508 -13.27097 -0.38267 -3.97614 -4.84327 -16.67471 9.69486 7.72593 11.96644
0.00668 0.95329 0.00098 168.9493 0 4.1218 9.04292 -0.85993 -4.09562 -39.36245 1.50164 5.70059 28.88878 -14.71447 -15.46312 9.54405 81.24625 -0.00688 2.82846 31.03199 3.52881 -0.4115 8.4497 -75.7435 -5.61589 -0.20026 1.60099 0.67818 10.71782 -21.06299 12.18532 -9.89787 -13.3401 -0.30789 -4.0106 -4.86951 -16.72428 9.70295 7.7374 11.99555
0.00885 0.95323 0.00131 168.89202 0 4.14567 8.6086 -0.82808 -3.81721 -39.33242 1.53002 5.56571 29.25264 -14.67524 -15.92225 9.31494 81.1372 0.09613 3.02167 31.2471 3.67889 -0.99638 8.52091 -75.8476 -5.60413 -0.12264 1.81207 0.68466 10.80246 -21.21945 12.19326 -9.90573 -13.36449 -0.13793 -4.0375 -4.84884 -16.81623 9.66775 7.72229 12.03112
0.01441 0.95359 0.00237 168.67697 0 4.14363 7.21006 -0.70016 -3.45497 -37.87422 1.64485 5.49774 28.85092 -14.91618 -15.93036 9.20284 81.15372 0.07838 3.23946 30.35066 3.86677 -2.22176 8.77838 -76.15909 -5.66365 0.14342 2.23925 0.69509 10.94893 -21.35211 12.05127 -9.76063 -13.25831 0.24097 -4.03831 -4.67186 -16.96025 9.51325 7.63267 12.0763
0.02134 0.95406 0.00373 168.41404 0 4.13223 5.42592 -0.53526 -3.0543 -35.8596 1.79739 5.4404 28.15445 -15.26653 -15.74937 9.14961 81.21169 0.01179 3.45717 29.03012 4.06922 -3.67997 9.1038 -76.54363 -5.75295 0.47125 2.76603 0.70963 11.11233 -21.50304 11.85453 -9.56086 -13.10807 0.72386 -4.03198 -4.45084 -17.15899 9.31632 7.51696 12.12832
0.02778 0.95445 0.00499 168.18386 0 4.12544 3.78319 -0.38552 -2.66547 -34.05336 1.93945 5.36272 27.56492 -15.57504 -15.61347 9.0933 81.24757 -0.03952 3.66138 27.87441 4.26498 -5.02344 9.39733 -76.89034 -5.83301 0.76123 3.2692 0.72534 11.26382 -21.67509 11.68205 -9.38724 -12.98363 1.18934 -4.03245 -4.26723 -17.37261 9.13933 7.41441 12.18299
0.03366 0.95497 0.00613 167.90776 0 4.11771 2.28187 -0.24314 -2.29914 -32.43361 2.05551 5.34932 27.08907 -15.85077 -15.64709 8.9386 81.29659 -0.05946 3.92433 26.83607 4.46092 -6.40638 9.69483 -77.25762 -5.89428 1.09207 3.67928 0.72814 11.43517 -21.71887 11.51064 -9.20743 -12.83673 1.52797 -4.01936 -4.01457 -17.41554 8.9573 7.30576 12.21692
0.04103 0.95524 0.00758 167.71565 0 4.10908 0.39389 -0.07607 -1.87679 -30.29604 2.23284 5.20563 26.31015 -16.22062 -15.29003 8.99959 81.32796 -0.15805 4.06431 25.45549 4.66019 -7.76319 10.00079 -77.59884 -6.0025 1.35344 4.30967 0.75898 11.56614 -22.03932 11.32585 -9.02831 -12.72363 2.15743 -4.03105 -3.89009 -17.83094 8.7783 7.20428 12.29129
0.05218 0.95493 0.00987 167.7681 0 4.10567 -2.45383 0.14452 -1.31555 -26.83937 2.58278 4.69274 24.7248 -16.82282 -13.82488 9.67462 81.30447 -0.45104 3.86424 23.20181 4.86256 -8.97147 10.30766 -77.85235 -6.22726 1.3978 5.49889 0.86453 11.60929 -23.0765 11.10283 -8.85856 -12.73646 3.54538 -4.12807 -4.17398 -19.22796 8.59699 7.12441 12.51352
0.0648 0.95432 0.01247 167.90619 0 4.1009 -5.67905 0.38934 -0.69855 -22.88742 2.99047 4.05024 22.85388 -17.51589 -11.98742 10.55884 81.26089 -0.82368 3.54012 20.62581 5.06826 -10.14763 10.62169 -78.07652 -6.49937 1.3718 6.91148 0.99829 11.60627 -24.40039 10.8715 -8.69282 -12.78073 5.2261 -4.24765 -4.58047 -21.00482 8.42448 7.05396 12.76969
0.07675 0.95374 0.01491 168.00488 0 4.09292 -8.74057 0.62719 -0.10283 -19.17604 3.36342 3.47094 21.13792 -18.16798 -10.36828 11.32591 81.22435 -1.16714 3.27314 18.21546 5.27402 -11.3519 10.93626 -78.31274 -6.75357 1.38468 8.23761 1.12052 11.60598 -25.61989 10.65296 -8.52877 -12.79637 6.78492 -4.34669 -4.90176 -22.62885 8.26142 6.98172 12.98473
0.08874 0.95364 0.01743 168.10533 0 4.09983 -11.78434 0.85076 0.47813 -15.37136 3.77399 2.87168 19.29714 -18.82316 -8.53181 12.18799 81.19919 -1.48267 3.00365 15.70165 5.47348 -12.51108 11.23739 -78.5573 -6.99343 1.37104 9.50169 1.23825 11.68263 -26.72686 10.39238 -8.34675 -12.87118 8.29935 -4.48806 -5.34478 -24.1685 8.03885 6.89635 13.30614
0.10097 0.95245 0.01986 168.2213 0 4.07669 -14.94729 1.10749 1.10133 -11.66134 4.11888 2.28583 17.66277 -19.49131 -7.06633 12.90137 81.14362 -1.87465 2.70906 13.34207 5.68689 -13.74879 11.56707 -78.77612 -7.27421 1.39452 10.94923 1.37098 11.58875 -28.14083 10.22072 -8.20536 -12.83058 9.97559 -4.54777 -5.56549 -25.97683 7.94443 6.84305 13.41697
0.11355 0.94859 0.02196 168.37468 0 3.96124 -18.36397 1.46558 1.83749 -8.24601 4.27252 1.74501 16.58 -20.17875 -6.67885 13.15063 81.02211 -2.45815 2.38296 11.40538 5.93532 -15.2478 11.97553 -78.93468 -7.65476 1.54273 12.8266 1.54691 11.02801 -30.29141 10.27455 -8.16341 -12.46638 12.01583 -4.36783 -5.12934 -28.4042 8.18858 6.85823 12.9125
0.12629 0.94359 0.02395 168.53817 0 3.81763 -21.88117 1.85305 2.61184 -4.96299 4.35707 1.22646 15.73237 -20.87441 -6.68427 13.24339 80.86893 -3.1156 2.03458 9.65227 6.19774 -16.81727 12.41168 -79.06738 -8.07503 1.7295 14.88399 1.73533 10.29908 -32.74822 10.42248 -8.16541 -11.98518 14.20982 -4.10682 -4.468 -31.09364 8.56392 6.90922 12.19991
0.13892 0.93893 0.026 168.68695 0 3.69304 -25.34084 2.21663 3.36245 -1.67892 4.47023 0.71326 14.83695 -21.56205 -6.53699 13.40872 80.72032 -3.73899 1.6914 7.87119 6.45589 -18.33137 12.83382 -79.20904 -8.47804 1.89498 16.87366 1.91229 9.65115 -35.09211 10.54221 -8.15438 -11.55532 16.34089 -3.8883 -3.91839 -33.68316 8.88822 6.95505 11.59903
0.15177 0.935 0.02804 168.88095 0 3.54137 -28.86913 2.62572 4.14342 1.8752 4.59716 0.13048 13.68363 -22.27125 -6.27261 13.57432 80.60887 -4.36709 1.36432 5.84524 6.70679 -19.94983 13.26275 -79.36118 -8.87938 2.07384 18.81391 2.11459 8.98009 -37.33685 10.60046 -8.1112 -11.13215 18.45511 -3.64572 -3.33295 -36.20724 9.17718 6.95256 10.92608
0.16415 0.9293 0.03006 168.98262 0 3.44041 -32.26689 2.94647 4.86768 4.82515 4.67831 -0.30069 13.12502 -22.93603 -6.34381 13.70067 80.4173 -5.00191 1.00049 4.37615 6.97426 -21.35958 13.68343 -79.48616 -9.29303 2.23504 20.89415 2.26677 8.32072 -39.85501 10.80878 -8.14907 -10.66949 20.63433 -3.43497 -2.76761 -38.9221 9.57006 7.06126 10.35452
0.17546 0.91904 0.03206 168.82153 0 3.47788 -35.3312 3.01751 5.44067 6.16727 4.64902 -0.31501 14.16996 -23.47711 -7.30408 13.74501 79.97461 -5.63711 0.53735 4.41091 7.29955 -22.24986 14.07876 -79.53834 -9.72998 2.33679 23.33741 2.27689 7.71028 -43.06692 11.41197 -8.36773 -10.10359 22.97585 -3.32056 -2.30763 -42.11892 10.22373 7.44885 10.10364
0.18624 0.90704 0.03402 168.56766 0 3.56882 -38.248 2.99824 5.95198 6.89816 4.57594 -0.1773 15.80239 -23.97218 -8.57964 13.75611 79.46046 -6.27641 0.03939 4.99904 7.63801 -22.91537 14.46359 -79.56467 -10.17763 2.41983 25.90892 2.23618 7.12219 -46.53725 12.16187 -8.67177 -9.50607 25.37078 -3.24272 -1.87596 -45.49114 10.97593 7.95005 9.96355
0.19711 0.89579 0.03599 168.35945 0 3.64105 -41.19793 3.01925 6.48191 7.8878 4.52321 -0.11127 17.15605 -24.48764 -9.67415 13.78961 79.00258 -6.91316 -0.44009 5.32862 7.96041 -23.63353 14.85094 -79.60614 -10.62114 2.51285 28.40896 2.21888 6.54014 -49.8816 12.84293 -8.95874 -8.93786 27.72819 -3.15588 -1.43424 -48.7711 11.67955 8.41273 9.77946
0.20865 0.88464 0.03803 168.13724 0 3.68927 -44.29923 3.04447 7.05393 8.95325 4.46612 -0.03466 18.57095 -25.00709 -10.94089 13.78832 78.43919 -7.55435 -0.93233 5.69552 8.32628 -24.55731 15.25041 -79.63378 -11.06414 2.60171 30.97704 2.20037 5.88385 -53.28177 13.5383 -9.15829 -8.30261 30.15287 -3.03524 -0.97312 -52.12181 12.40536 8.82394 9.56197
